<svg xmlns="http://www.w3.org/2000/svg" viewBox="0 0 24 24" class="injected-svg" data-src="https://qa-cdn-talkdesk.talkdeskdev.com/cdn-assets/latest/talkdesk/product/app-icons/activity.svg?cors=false" xmlns:xlink="http://www.w3.org/1999/xlink" role="img"><path d="m4.127 3.616c1.32-1.01 3.21-.76 4.21.55 1.009 1.32.759 3.21-.55 4.21-.26.2-.54.35-.83.45v6.34c.53.19 1.009.52 1.38 1a2.998 2.998 0 0 1 -2.38 4.83c-.901 0-1.79-.41-2.38-1.17-1.01-1.32-.76-3.21.55-4.21.259-.2.54-.351.83-.45v-6.34a3.074 3.074 0 0 1 -1.38-1c-1.01-1.32-.76-3.21.55-4.21zm11.83 14.38v2h-5v-2zm-10-1c-.21 0-.43.07-.611.21a.992.992 0 0 0 -.18 1.4c.33.44.96.52 1.4.18.44-.33.52-.96.18-1.4a.973.973 0 0 0 -.79-.39zm15-3v2h-10v-2zm-3-6v2h-7v-2zm-12-3c-.21 0-.43.07-.611.21a.992.992 0 0 0 -.18 1.4c.33.44.96.52 1.4.18.44-.33.52-.96.18-1.4a.973.973 0 0 0 -.79-.39zm15-1v2h-10v-2z" fill="#fff"></path></svg>