<svg xmlns="http://www.w3.org/2000/svg" viewBox="0 0 24 24" class="injected-svg" data-src="https://qa-cdn-talkdesk.talkdeskdev.com/cdn-assets/latest/talkdesk/product/app-icons/settings.svg?cors=false" xmlns:xlink="http://www.w3.org/1999/xlink" role="img"><path d="m7.3415 15.8427.541.513c.684.645 1.515 1.127 2.403 1.392l.714.213v2.038h2v-2.038l.714-.213c.889-.265 1.72-.747 2.403-1.392l.541-.513 1.77 1.022 1-1.732-1.768-1.021.171-.724c.113-.473.169-.94.169-1.389s-.056-.916-.169-1.388l-.171-.725 1.769-1.021-1.001-1.731-1.77 1.022-.541-.512c-.684-.647-1.515-1.128-2.402-1.393l-.715-.212v-2.04h-2v2.04l-.715.212c-.886.265-1.717.746-2.402 1.393l-.541.512-1.77-1.022-1 1.731 1.77 1.021-.173.726c-.112.47-.169.937-.169 1.387s.057.917.169 1.388l.173.725-1.771 1.022 1.001 1.731zm5.658-13.844c1.103 0 2 .898 2 2v.587c.684.278 1.331.653 1.917 1.111l.511-.295c.463-.267 1.002-.339 1.519-.2.516.139.948.47 1.214.933l.999 1.73c.551.955.224 2.18-.73 2.732l-.511.295c.054.373.081.744.081 1.107 0 .365-.027.735-.081 1.109l.51.295c.461.265.793.696.931 1.212.138.517.067 1.056-.201 1.519l-.999 1.731c-.265.462-.697.793-1.213.932-.516.142-1.055.068-1.519-.199l-.511-.296c-.586.457-1.233.833-1.917 1.111v.586c0 1.103-.897 2-2 2h-2c-1.102 0-2-.897-2-2v-.586a8.079 8.079 0 0 1 -1.917-1.111l-.511.296c-.957.55-2.182.222-2.732-.734l-1-1.731a1.9867 1.9867 0 0 1 -.2-1.517c.139-.516.47-.948.931-1.214l.51-.294a7.8933 7.8933 0 0 1 -.081-1.109c0-.364.028-.734.081-1.107l-.509-.294c-.956-.553-1.283-1.778-.732-2.733l1-1.731c.266-.462.697-.793 1.213-.932.518-.138 1.057-.067 1.519.2l.511.295a8.0452 8.0452 0 0 1 1.917-1.111v-.587c0-1.102.898-2 2-2h2zm-.9998 6.5002c-1.93 0-3.5 1.57-3.5 3.5s1.57 3.5 3.5 3.5 3.5-1.57 3.5-3.5-1.57-3.5-3.5-3.5zm0 2c.827 0 1.5.673 1.5 1.5s-.673 1.5-1.5 1.5-1.5-.673-1.5-1.5.673-1.5 1.5-1.5z" fill="#fff"></path></svg>