<svg xmlns="http://www.w3.org/2000/svg" viewBox="0 0 24 24" class="injected-svg" data-src="https://qa-cdn-talkdesk.talkdeskdev.com/cdn-assets/latest/talkdesk/product/app-icons/ai-trainer.svg?cors=false" xmlns:xlink="http://www.w3.org/1999/xlink" role="img"><path d="M20.618 12.003C21.458 11.27 22 10.204 22 9.005c0-1.269-.583-2.434-1.599-3.197-.698-.524-1.528-.801-2.401-.801h-.051C17.703 3.316 16.258 2.01 14.5 2.01c-1.869 0-3.388 1.476-3.483 3.321h-.019L11 18.494c0 .826-.673 1.498-1.5 1.498S8 19.32 8 18.494c0-.48.222-.921.611-1.207l-1.187-1.609c-.458.338-.818.782-1.063 1.282-.118.022-.238.038-.361.038-1.103 0-2-.896-2-1.998 0-1.101.897-1.997 2-1.997v-.002c.002 0 .005.001.007.001.188 0 .378-.014.567-.041l-.287-1.979a2.001 2.001 0 01-1.702-.565C4.207 10.04 4 9.538 4 9.005c0-.534.208-1.035.584-1.412.781-.781 2.05-.779 2.831 0l1.412-1.416c-.245-.245-.521-.438-.807-.606-.087-.156-.145-.325-.145-.507 0-.582.473-1.054 1.055-1.054.185 0 .357.044.513.132l.979-1.744c-.452-.254-.968-.388-1.492-.388-1.669 0-3.028 1.347-3.051 3.012-.984.029-1.959.408-2.708 1.156C2.416 6.933 2 7.937 2 9.005s.416 2.072 1.171 2.827c.064.065.141.111.21.171C2.542 12.736 2 13.801 2 15c0 2.204 1.794 3.998 4 3.998.017 0 .033-.005.051-.005.244 1.691 1.69 2.999 3.449 2.999 1.93 0 3.5-1.569 3.5-3.552l-.002-12.932H13c0-.826.673-1.498 1.5-1.498s1.5.672 1.5 1.498c0 .48-.223.92-.611 1.206l1.188 1.609c.468-.345.829-.802 1.073-1.316H18c.436 0 .851.139 1.2.4.508.382.8.964.8 1.598 0 1.102-.898 1.998-2 1.998v2c1.102 0 2 .896 2 1.997 0 1.102-.898 1.998-2 1.998-.255 0-.503-.047-.737-.141a2.0065 2.0065 0 01-.868-.663l-1.601 1.198c.315.422.712.771 1.16 1.038.087.156.145.326.145.508 0 .582-.473 1.054-1.055 1.054-.184 0-.357-.045-.515-.133l-.974 1.747c.453.252.968.386 1.489.386 1.667 0 3.022-1.343 3.051-3.004C20.256 18.938 22 17.172 22 15c0-1.199-.542-2.264-1.382-2.997" fill="#fff"></path></svg>