<svg xmlns="http://www.w3.org/2000/svg" viewBox="0 0 24 24" class="injected-svg" data-src="https://qa-cdn-talkdesk.talkdeskdev.com/cdn-assets/latest/talkdesk/product/app-icons/virtual-agent.svg?cors=false" xmlns:xlink="http://www.w3.org/1999/xlink" role="img"><path d="M8.963 4l6.077.013c3.837 0 6.96 3.135 6.96 6.988 0 3.696-2.872 6.731-6.492 6.974l-3.201 3.682-1.51-1.313 3.785-4.353h.456c2.736 0 4.962-2.239 4.962-4.99 0-2.751-2.226-4.988-4.962-4.988L8.961 6C6.227 6 4 8.239 4 10.99c0 2.757 2.227 5.001 4.963 5.001h1.161v2H8.963C5.124 17.991 2 14.85 2 10.99 2 7.136 5.124 4 8.963 4zm-.4491 5.5575c.614 1.453 2.03 2.39 3.607 2.39 1.528 0 2.927-.897 3.563-2.287l1.818.832c-.96 2.099-3.072 3.455-5.381 3.455-2.383 0-4.521-1.417-5.449-3.61z" fill="#fff"></path></svg>