<svg xmlns="http://www.w3.org/2000/svg" viewBox="0 0 24 24" class="injected-svg" data-src="https://qa-cdn-talkdesk.talkdeskdev.com/cdn-assets/latest/talkdesk/product/app-icons/workspace_designer_dashboard.svg?cors=false" xmlns:xlink="http://www.w3.org/1999/xlink" role="img"><path fill="#ffffff" d="M20 3h-5a2.002 2.002 0 0 0-2 2v5a2.002 2.002 0 0 0 2 2h5a2.002 2.002 0 0 0 2-2V5a2.002 2.002 0 0 0-2-2Zm-5 7V5h5l.001 5H15Zm-3 0V5a2.002 2.002 0 0 0-2-2H4a2.002 2.002 0 0 0-2 2v5a2.002 2.002 0 0 0 2 2h6a2.002 2.002 0 0 0 2-2Zm-8 0V5h6l.001 5H4Zm4.001 3H3.999a2.001 2.001 0 0 0-1.998 2v4c0 1.104.894 1.998 1.998 2h4.002a2.001 2.001 0 0 0 1.998-2v-4a2.001 2.001 0 0 0-1.998-2Zm-4.002 6v-4h4.002l.001 4H3.999ZM20 13h-7a2.002 2.002 0 0 0-2 2v4a2.002 2.002 0 0 0 2 2h7a2.002 2.002 0 0 0 2-2v-4a2.002 2.002 0 0 0-2-2Zm-.002 6H13v-4h7l-.002 4ZM20 20v-1h.001L20 20Z"></path></svg>