<svg xmlns="http://www.w3.org/2000/svg" viewBox="0 0 24 24" class="injected-svg" data-src="https://qa-cdn-talkdesk.talkdeskdev.com/cdn-assets/latest/talkdesk/product/app-icons/contacts.svg?cors=false" xmlns:xlink="http://www.w3.org/1999/xlink" role="img"><path d="m21.0048 2.0458v20l-15.85-.03c-1.19 0-2.15-.9-2.15-2v-3.06h-.98v-2h.98v-1.97h-.98v-2h.98v-2.04h-.98v-2h.98v-2.89c0-1.11.97-2.01 2.15-2.01zm-2 2h-13.85c-.1 0-.15.05-.16.061v2.839h.91v2h-.91v2.04h.91v2h-.9v1.97h.9v2h-.9v3.05l.01-.01c.03 0 .07.02.14.02l13.85.03zm-7.0461 9.8438c2.761 0 5.007 2.243 5.007 5h-2c0-1.654-1.349-3-3.007-3-1.65 0-2.993 1.342-2.993 2.99h-2c0-2.752 2.24-4.99 4.993-4.99zm.007-7.8741c1.93 0 3.5 1.57 3.5 3.5s-1.57 3.5-3.5 3.5-3.5-1.57-3.5-3.5 1.57-3.5 3.5-3.5zm0 2c-.827 0-1.5.673-1.5 1.5s.673 1.5 1.5 1.5 1.5-.673 1.5-1.5-.673-1.5-1.5-1.5z" fill="#fff"></path></svg>