<svg xmlns="http://www.w3.org/2000/svg" viewBox="0 0 24 24" class="injected-svg" data-src="https://qa-cdn-talkdesk.talkdeskdev.com/cdn-assets/latest/talkdesk/product/app-icons/live.svg?cors=false" xmlns:xlink="http://www.w3.org/1999/xlink" role="img"><path d="M12.619 14.728c-.438.335-1.067.252-1.402-.185a.9874.9874 0 01-.199-.738.9971.9971 0 01.382-.661.9974.9974 0 01.608-.205c.3 0 .598.135.796.392.162.21.232.472.197.737a.991.991 0 01-.382.66M12 3C6.486 3 2 7.483 2 12.993v1.987h3.971v-2H4c.006-4.06 3.06-7.412 6.992-7.909v1.927h2V5.069c1.65.205 3.143.914 4.324 1.968l-4.152 4.148c-.96-.4-2.098-.303-2.98.371-.635.487-1.044 1.193-1.148 1.987-.105.794.105 1.581.593 2.217.59.769 1.482 1.173 2.385 1.173.635 0 1.277-.201 1.82-.617.637-.486 1.045-1.192 1.149-1.986.084-.63-.04-1.253-.334-1.802l3.991-3.987A7.9423 7.9423 0 0120 12.98h-2.015v2H22v-1.987C22 7.483 17.514 3 12 3" fill="#fff"></path></svg>