<svg xmlns="http://www.w3.org/2000/svg" viewBox="0 0 24 24" class="injected-svg" data-src="https://qa-cdn-talkdesk.talkdeskdev.com/cdn-assets/latest/talkdesk/product/app-icons/routing.svg?cors=false" xmlns:xlink="http://www.w3.org/1999/xlink" role="img">
  <path d="m16 1.996c1.1 0 2 .9 2 2v2c0 1.1-.9 2-2 2h-3v4.92c0 .26-.11.52-.299.71l-6.47 6.37h2.769v2h-6v-6h2v2.41l6-5.91v-4.5h-3c-1.099 0-2-.9-2-2v-2c0-1.1.901-2 2-2zm-1.2997 12.24 4.3 4.31v-2.55h2v6h-6v-2h2.63l-4.35-4.34zm1.2997-10.24h-8v2h8z" fill="#fff">
  </path>
</svg>